<?xml version="1.0" encoding="utf-8"?>
<!-- Generator: Adobe Illustrator 23.0.1, SVG Export Plug-In . SVG Version: 6.00 Build 0)  -->
<svg version="1.1" id="圖層_1" xmlns="http://www.w3.org/2000/svg" xmlns:xlink="http://www.w3.org/1999/xlink" x="0px" y="0px"
	 viewBox="0 0 283.46 283.46" style="enable-background:new 0 0 283.46 283.46;" xml:space="preserve">
<style type="text/css">
	.st0{display:none;}
	.st1{display:inline;fill:none;stroke:#D8265E;stroke-width:2;stroke-miterlimit:10;}
	.st2{display:none;opacity:0.74;fill:none;stroke:#152041;stroke-width:4;stroke-miterlimit:10;}
	.st3{display:none;fill:none;stroke:#152041;stroke-width:2;stroke-miterlimit:10;}
	.st4{fill:#D8265E;}
	.st5{fill:#152041;}
</style>
<g class="st0">
	<path class="st1" d="M139.91,102.97c0,37.9-30.72,68.63-68.63,68.63c-12.64,0-24.48-3.42-34.65-9.38"/>
	<path class="st1" d="M105.22,93.1c18.69,31.5,8.73,73.39-22.23,93.01c-10.98,6.96-23.86,10.73-36.86,10.69"/>
	<path class="st1" d="M71.43,103.07c32.82,18.95,44.07,60.92,25.12,93.74c-6.2,10.74-14.87,19.18-24.88,24.99"/>
	<path class="st1" d="M46.4,128.17c36.57,0.01,67.47,29.91,68.59,66.49c0.38,12.48-2.65,24.96-8.79,35.83"/>
	<path class="st1" d="M37.27,162.42c32.82-18.95,74.79-7.7,93.74,25.12c6.19,10.71,9.15,22.4,9.2,33.95"/>
	<path class="st1" d="M46.49,196.65c18.95-32.82,60.92-44.07,93.74-25.12c10.77,6.22,19.22,14.92,25.04,24.95"/>
	<path class="st1" d="M71.59,221.68c0.01-36.85,30.35-67.86,67.2-68.61c12.57-0.26,25.11,2.96,35.97,9.3"/>
	<path class="st1" d="M105.84,230.8c-18.14-31.44-8.01-72.83,22.67-92.26c10.95-6.94,23.79-10.71,36.76-10.69"/>
	<path class="st1" d="M140.07,221.58c-32.82-18.95-44.07-60.92-25.12-93.74c6.2-10.74,14.87-19.18,24.88-24.99"/>
	<path class="st1" d="M165.1,196.48c-37.9,0-68.63-30.72-68.63-68.63c0-12.41,3.29-24.04,9.05-34.08"/>
	<path class="st1" d="M174.23,162.23c-32.82,18.95-74.79,7.7-93.74-25.12c-6.25-10.83-9.22-22.65-9.21-34.31"/>
	<path class="st1" d="M165.01,128c-18.95,32.82-60.92,44.07-93.74,25.12c-10.83-6.25-19.31-15.01-25.13-25.12"/>
</g>
<path class="st2" d="M63.79,106.08c13.33-35.59,47.66-60.93,87.9-60.93c51.82,0,93.83,42.01,93.83,93.83s-42.01,93.83-93.83,93.83
	c-4.97,0-9.86-0.39-14.62-1.13"/>
<path class="st3" d="M102.86,99.05c11.27-12.13,27.36-19.72,45.22-19.72c34.09,0,61.72,27.63,61.72,61.72
	c0,30.99-22.84,56.64-52.6,61.05"/>
<g id="華麗向量包_19">
	<path class="st4" d="M71.62,156.66c0.01-0.01,0.02-0.03,0.02-0.04c-0.05,0.09-0.09,0.18-0.13,0.27
		C71.54,156.81,71.58,156.73,71.62,156.66z"/>
	<path class="st4" d="M70.14,162.46c0.03,0.03,0.12,0.12,0.26,0.24C70.26,162.58,70.17,162.49,70.14,162.46z"/>
	<path class="st4" d="M145.41,226.92c0.01,0.03,0.01,0.06,0.02,0.09C145.42,226.98,145.41,226.95,145.41,226.92
		C145.41,226.92,145.41,226.92,145.41,226.92z"/>
	<path class="st4" d="M145.26,226.36C145.26,226.36,145.26,226.36,145.26,226.36c-0.02-0.07-0.04-0.14-0.06-0.2
		C145.23,226.23,145.25,226.29,145.26,226.36z"/>
	<path class="st4" d="M58.08,173c-0.02,0.04-0.04,0.07-0.06,0.1c0.02-0.04,0.04-0.08,0.06-0.12C58.09,172.99,58.09,173,58.08,173z"
		/>
	<path class="st4" d="M58.39,164.19C58.39,164.19,58.39,164.19,58.39,164.19C58.39,164.19,58.39,164.19,58.39,164.19
		C58.39,164.18,58.39,164.18,58.39,164.19z"/>
	<path class="st4" d="M58.42,162.77C58.42,162.77,58.42,162.77,58.42,162.77c0.02,0.04,0.05,0.09,0.06,0.15
		C58.47,162.87,58.44,162.82,58.42,162.77z"/>
	<g>
		<path class="st5" d="M112.71,94c0.84,0.02,1.64-0.11,2.39-0.36c0.64,0.76,1.56,2.23,1.9,4.17c0.42,1.83,0.53,3.72,0.62,4.86
			c-5.18,1.25-9.08,5.84-9.23,11.42c-0.18,6.67,5.09,12.22,11.75,12.39c1.94,0.05,3.78-0.36,5.42-1.13c1,1.8,2.53,3.64,4.26,5.18
			c1.38,1.25,2.85,2.34,4.23,3.23c-0.93-0.17-2.04-0.31-3.3-0.34c-1.2,0.02-2.75,0.15-4.15,0.81c-0.22,0.06-0.46,0.15-0.68,0.29
			c-0.2,0.07-2.83,1.95-7.09,3.51c-2.06,0.68-4.87,1.41-6.95,0.16c-1.89-1.25-2.95-4.94-1.1-6.78c1.85-1.92,5.39-2.09,7.48-0.65
			c2.45,1.44,0.95,4.71-0.89,5.52c-1.91,1.03-3.5-1.29-3.24-2.36c0.06-1.35,1.17-1.36,1.08-1.46c0.15-0.03-1.22-0.21-1.49,1.41
			c-0.44,1.22,1.19,4.29,3.98,3.13c1.15-0.53,2.17-1.53,2.66-2.94c0.58-1.41-0.07-3.32-1.43-4.22c-2.58-1.84-6.56-1.87-9.19,0.56
			c-2.59,2.8-1.5,7.18,1.2,9.19c3.1,1.85,6.23,0.84,8.48,0.21c1.44-0.49,2.69-1.01,3.74-1.5c-0.62,1.69-0.72,3.57,0.16,5.46
			c1.82,2.7,5.35,2.37,7.4,1.04c2.39-1.69,1.64-5.42-0.63-5.95c-2.35-0.56-3.5,1.9-3.04,2.93c0.49,1.19,1.41,1.08,1.33,1.08
			c0.09-0.11-0.71-0.25-0.93-1.18c-0.23-0.85,0.81-2.63,2.44-2.06c1.51,0.25,1.84,3.37,0.21,4.22c-1.67,1.03-4.6,0.94-5.52-0.81
			c-0.86-1.72-0.08-4.5,1.07-5.94c0.04-0.05,0.07-0.09,0.11-0.13c0.72-0.41,1.15-0.69,1.23-0.71c0.24-0.15,0.44-0.33,0.6-0.52
			c1.02-0.37,2.15-0.45,3.13-0.44c3.54,0.19,5.91,1.3,6.06,1.3c0.03,0.01,0.06,0.01,0.08,0.02c-0.24,0.84-0.38,1.72-0.41,2.64
			c-0.15,5.78,4.41,10.59,10.19,10.74c2.69,0.07,5.16-0.88,7.06-2.49c0.82,0.67,1.72,1.59,2.43,2.74c1.29,1.93,1.96,4.17,2.34,5.26
			c-1.13,1.92-2.33,3.62-3.43,5.04c-2.9-2.66-6.73-4.33-10.97-4.44c-9.34-0.25-17.1,7.12-17.35,16.46
			c-0.25,9.33,7.12,17.1,16.46,17.35c9.33,0.25,17.1-7.12,17.35-16.46c0.11-4.3-1.39-8.26-3.95-11.31c0.06-0.04,0.11-0.08,0.17-0.13
			c0.17-0.09,2.25-2.19,5.88-4.23c1.8-0.96,4.1-1.94,6.46-1.7c2.21,0.19,4.72,2.26,4.93,4.58c0.14,2.41-2.22,4.62-4.45,5.31
			c-2.29,0.96-4.55-1.14-4.39-2.99c0.05-2.1,2.07-2.76,3.05-2.03c1,0.6,0.81,1.52,0.95,1.46c-0.02,0.08,0.41-0.9-0.73-1.81
			c-0.56-0.39-1.4-0.62-2.37-0.3c-0.93,0.45-1.54,1.43-1.7,2.6c-0.43,2.41,2.54,5.21,5.5,4.15c2.64-0.77,5.53-3,5.58-6.47
			c-0.29-3.39-3.21-5.74-6.15-6.2c-3.01-0.36-5.57,0.74-7.55,1.72c-1.7,0.9-3.06,1.8-4.09,2.55c1.63-2.11,3.28-4.66,4.55-7.48
			c2.2-4.41,3.44-9.14,4.13-12.59c0.48,0.08,0.96,0.13,1.46,0.14c6.08,0.16,11.13-4.64,11.29-10.71c0.05-2.05-0.46-3.98-1.39-5.65
			c1.07-1.09,2.22-2.5,3.12-4.15c1.06-1.73,1.57-3.65,1.81-5.31c0.57,0.13,1.17,0.2,1.78,0.22c5.19,0.14,9.5-3.96,9.64-9.14
			c0.14-5.19-3.96-9.5-9.14-9.64c-5.19-0.14-9.5,3.96-9.64,9.14c-0.1,3.92,2.21,7.34,5.59,8.84c-0.09,1.55-0.42,3.43-1.32,5.24
			c-0.54,1.22-1.23,2.34-1.93,3.32c0.03-1.98-0.48-6.32-2.45-10.68c0.03-0.18-0.01-0.35-0.12-0.47c-0.02-0.01-0.09-0.08-0.19-0.19
			c-0.38-0.79-0.81-1.57-1.3-2.34c-1.67-2.91-3.84-5.4-5.81-7.33c2.28-2.26,3.74-5.36,3.83-8.82c0.09-3.4-1.15-6.52-3.23-8.88
			c0.11-0.13,0.22-0.29,0.33-0.42c-0.32-0.16-0.63-0.33-0.93-0.52c-0.04,0.06-0.08,0.13-0.12,0.19c-2.24-2.15-5.25-3.5-8.59-3.59
			c-1.74-0.05-3.4,0.26-4.93,0.84c-1.41-2.64-2.95-5.96-3.93-9.54c-1.8-5.37-1.24-10.74-0.55-13.9c3.21-1.17,5.55-4.21,5.65-7.84
			c0.13-4.74-3.62-8.69-8.36-8.81c-4.74-0.13-8.69,3.62-8.81,8.36c-0.13,4.74,3.62,8.69,8.36,8.81c0.36,0.01,0.72-0.01,1.07-0.05
			c-0.09,0.54-0.18,1.12-0.24,1.74c-0.4,3.41,0.09,7.94,1.5,12.1c0.72,2.25,1.66,4.36,2.65,6.26c-0.67-0.68-1.77-1.72-3.33-2.95
			c-2.59-1.97-6.66-4.74-12.34-5.24c-2.8-0.22-5.89,0.2-8.81,1.52c-2.95,1.22-5.74,4.2-6,7.89c-0.32,3.61,1.22,7.23,3.88,9.77
			c2.59,2.61,7.06,3.63,10.46,1.76c3.2-1.8,5.94-4.7,6.45-8.51c0.39-3.93-2.75-7.17-6.06-8.02c-3.54-1.01-6.94,1.04-8.77,3.5
			c-2.04,2.75-0.85,6.39,0.98,8.22c1.5,2.26,4.8,3.14,6.63,1.53c1.82-1.34,2.39-3.65,1.64-5.12c-1.81-2.6-4.04-2.05-4.15-2.11
			c-0.04,0.2,2.29-0.16,3.78,2.28c0.6,1.28,0.02,3.33-1.62,4.46c-1.64,1.29-4.25,0.58-5.66-1.54c-1.69-1.84-2.55-4.86-0.79-7.16
			c1.65-2.13,4.76-3.9,7.66-2.96c2.89,0.8,5.47,3.65,5.07,6.79c-0.39,3.07-3,5.86-5.8,7.34c-6.28,3.26-12.91-4.19-12.02-10.07
			c0.73-6.38,8.33-8.15,12.96-7.71c5.07,0.49,8.85,3.06,11.27,4.94c2.44,1.96,3.68,3.42,3.87,3.59c0.55,0.59,1.08,1.1,1.56,1.49
			c-3.78,2.16-6.37,6.18-6.49,10.85c-0.19,7.11,5.43,13.03,12.54,13.22c2.99,0.08,5.76-0.87,7.99-2.52c1.79,1.61,3.77,3.68,5.45,6.1
			c-0.72-0.4-1.59-0.77-2.65-0.87c-1.44-0.21-2.94,0.7-3.74,1.75c-0.97,1.04-1.16,3-0.16,4.04c0.87,1.07,2.38,1.36,3.32,0.85
			c2.14-1.08,1.13-3.02,1.11-2.75c-0.17-0.1,0.2,1.58-1.38,2.01c-1.53,0.68-3.51-1.78-1.79-3.21c1.45-1.76,3.52-0.92,4.87,0.12
			c1.35,1.02,2.11,1.98,2.17,2.02c0.14,0.16,0.41,0.17,0.69,0.07c2.11,4.26,2.82,8.51,3.06,10.13c-0.04,0.06-0.09,0.12-0.13,0.18
			c-1.93-2.8-5.12-4.68-8.78-4.77c-6.08-0.16-11.13,4.64-11.29,10.71c-0.13,4.92,2.98,9.16,7.4,10.69
			c-0.55,3.36-1.61,8.04-3.58,12.45c-0.59,1.47-1.28,2.87-2.01,4.18c-0.11-1.3-0.52-3.33-1.5-5.25c-0.61-1.33-1.52-2.45-2.4-3.31
			c1.45-1.74,2.34-3.96,2.41-6.4c0.15-5.78-4.41-10.59-10.19-10.74c-4.15-0.11-7.8,2.21-9.59,5.67c-0.05-0.02-0.1-0.05-0.16-0.07
			c-0.06,0-0.3-0.09-0.72-0.23c-0.58-0.41-1.22-0.88-1.88-1.39c0.23-1.31,0.68-4.18,2.26-6.58c0.37-0.62,0.79-1.18,1.24-1.68
			c1.23,0.89,2.72,1.43,4.35,1.47c4.3,0.11,7.87-3.28,7.99-7.58c0.11-4.3-3.28-7.87-7.58-7.99c-4.3-0.11-7.87,3.28-7.99,7.58
			c-0.05,2.08,0.71,3.98,2.01,5.41c-0.48,0.62-0.92,1.32-1.28,2.08c-1.37,2.61-1.57,5.42-1.46,6.92c-1.18-0.94-2.42-2.01-3.57-3.2
			c-1.57-1.59-2.88-3.39-3.68-5.03c3.16-2.1,5.29-5.66,5.39-9.74c0.18-6.67-5.09-12.22-11.76-12.39c-0.87-0.02-1.72,0.05-2.55,0.2
			c0.22-1.16,0.38-3.03,0.19-4.96c-0.04-1.86-0.84-3.65-1.57-4.81c1.77-1.22,2.96-3.24,3.02-5.56c0.1-3.85-2.94-7.06-6.79-7.16
			c-3.85-0.1-7.06,2.94-7.16,6.79C105.82,90.7,108.86,93.9,112.71,94z"/>
		<path class="st5" d="M56.31,185.14L56.31,185.14c3.54,5.82,8.2,11.23,13.66,15.43c5.3,4.12,11.27,6.93,17.19,8.53
			c-5.9-1.74-11.78-4.68-16.92-8.86c-5.29-4.25-9.72-9.63-13.02-15.35h0c-0.26-0.44-0.52-0.89-0.78-1.35
			c-4.55-8-5.98-14.71-6.26-14.72c-0.33-0.09,0.64,6.73,5.33,14.94C55.77,184.23,56.04,184.69,56.31,185.14z M134.47,214.5
			c-0.21-0.09-1.49,2.26-4.17,4.23c-0.15,0.12-0.3,0.22-0.46,0.33h0c-1.92,1.44-4.29,2.29-6.71,2.53c-2.42,0.26-4.89-0.06-7.27-0.65
			c2.34,0.72,4.79,1.18,7.28,1.05c2.47-0.12,5.02-0.87,7.17-2.32l0,0c0.16-0.11,0.33-0.23,0.49-0.35
			C133.71,217.18,134.72,214.52,134.47,214.5z M70.76,194.22L70.76,194.22c2.25,4.21,5.92,7.77,9.93,10.32
			c3.95,2.52,8.2,4.2,12.42,5.39c-4.19-1.34-8.38-3.15-12.19-5.75c-3.87-2.63-7.28-6.17-9.25-10.19h0
			c-0.16-0.31-0.31-0.62-0.46-0.94c-2.61-5.64-1.8-10.15-2.1-10.2c-0.14-0.06-0.54,0.98-0.57,2.85c-0.03,1.86,0.37,4.59,1.74,7.53
			C70.43,193.56,70.59,193.89,70.76,194.22z M208.24,204.18c-3.8,2.6-8,4.41-12.19,5.75c4.22-1.2,8.47-2.87,12.42-5.39
			c4-2.55,7.68-6.11,9.93-10.32h0c0.17-0.32,0.33-0.66,0.49-1c1.37-2.94,1.76-5.67,1.74-7.53c-0.03-1.87-0.43-2.91-0.57-2.85
			c-0.3,0.05,0.51,4.56-2.1,10.2c-0.15,0.32-0.3,0.64-0.46,0.94h0C215.52,198.01,212.11,201.55,208.24,204.18z M201.99,209.11
			c5.92-1.6,11.89-4.41,17.19-8.53c5.46-4.2,10.13-9.61,13.66-15.43h0c0.27-0.45,0.54-0.91,0.81-1.39
			c4.68-8.21,5.66-15.03,5.33-14.94c-0.29,0.01-1.72,6.72-6.26,14.72c-0.26,0.46-0.52,0.91-0.78,1.35h0
			c-3.3,5.72-7.73,11.1-13.02,15.35C213.77,204.42,207.89,207.36,201.99,209.11z M166.02,221.59c-2.41-0.24-4.79-1.1-6.71-2.53h0
			c-0.15-0.11-0.3-0.21-0.46-0.33c-2.68-1.97-3.97-4.32-4.17-4.23c-0.25,0.02,0.76,2.68,3.66,4.83c0.16,0.12,0.33,0.24,0.49,0.35
			l0,0c2.15,1.45,4.7,2.2,7.17,2.32c2.49,0.13,4.94-0.33,7.29-1.05C170.91,221.53,168.44,221.84,166.02,221.59z M225.42,205.26
			c-4.29,3.93-9.17,7.07-14.19,8.81c-2.56-1.66-6.01-1.96-9.26-1.67c-3.97,0.38-7.82,1.52-11.6,2.55c-0.36,0.1-0.72,0.21-1.08,0.31
			c-0.5-0.19-1-0.38-1.49-0.59c-3.67-1.48-7.32-3.08-10.91-4.82c-3.65-1.69-7.2-3.58-10.86-5.39c-0.19-0.09-0.39-0.19-0.58-0.28
			c1.12,0.43,2.33,0.92,3.62,1.47c4.96,2.14,9.02,3.52,12.26,4.12c3.23,0.61,6.97,0.53,11.27-0.25c4.34-0.81,8.44-2.5,12.33-5.07
			c1.35-0.89,2.54-1.79,3.57-2.69c0.17-0.14,0.33-0.28,0.5-0.42c1.64-1.41,2.77-2.93,3.45-4.36c0.4-0.78,0.63-1.51,0.7-2.19
			c0.45-2.92-1.39-4.83-4.85-3.59c-5.72,2.01-7.6,7-7.6,7s1.88-2.47,6.28-1.85c3.72,0.53,4.57-2.13,4.74-2.95
			c0.15,0.04,0.27,0.1,0.36,0.17c0.71,1.19,0.09,2.97-0.61,4.34c-0.07,0.12-0.15,0.24-0.23,0.37c-1.22,1.91-3.29,3.83-6.17,5.74
			c-2.94,1.95-5.92,3.25-8.96,3.92c-3.01,0.66-5.97,0.73-8.89,0.25c-2.93-0.48-7.33-1.67-13.24-3.51l-5.23-1.57
			c-0.35-0.1-0.72-0.2-1.09-0.3c-1.93-0.46-3.74-0.82-5.43-1.11c2.98,0.3,5.46,0.38,7.44,0.23c2.35-0.18,4.94-0.83,7.78-1.95
			c2.87-1.14,5.4-2.69,7.58-4.66c0.75-0.68,1.4-1.33,1.92-1.96c0.09-0.1,0.17-0.2,0.26-0.29c0.84-0.98,1.29-1.94,1.45-2.77
			c0.1-0.46,0.1-0.87,0-1.22c-0.35-1.55-2.07-2.24-4.2-1.1c-3.52,1.88-3.74,4.76-3.74,4.76s0.77-1.57,3.97-1.92
			c2.72-0.3,2.71-1.79,2.65-2.23c0.11,0,0.21,0.01,0.29,0.03c0.77,0.49,0.74,1.5,0.55,2.31c-0.03,0.07-0.05,0.15-0.08,0.22
			c-0.43,1.17-1.46,2.48-3.07,3.93c-1.65,1.48-3.46,2.65-5.45,3.5c-1.97,0.84-4.02,1.35-6.15,1.56c-2.12,0.2-5.38,0.24-9.76,0.11
			l-3.82-0.12c-0.26-0.01-0.52-0.01-0.79-0.02c-0.72,0.01-1.4,0.02-2.07,0.05c1.25-0.36,2.54-1.01,3.87-1.95
			c1.37-0.96,2.47-2.12,3.27-3.47c0.28-0.46,0.5-0.9,0.66-1.31c0.03-0.06,0.05-0.13,0.08-0.19c0.26-0.64,0.31-1.23,0.21-1.72
			c-0.04-0.27-0.13-0.5-0.27-0.69c-0.54-0.85-1.66-1.08-2.59-0.23c-1.55,1.41-1.06,3.09-1.06,3.09s0.09-0.98,1.8-1.48
			c1.46-0.43,1.13-1.28,0.99-1.52c0.06-0.01,0.12-0.02,0.17-0.01c0.54,0.21,0.74,0.78,0.82,1.26c0,0.04,0.01,0.09,0.01,0.13
			c0.01,0.71-0.28,1.55-0.87,2.54c-0.61,1.02-1.38,1.88-2.32,2.57c-0.93,0.69-1.97,1.21-3.12,1.55c-1.14,0.34-2.95,0.7-5.41,1.07
			l-2.14,0.32c-0.08,0.01-0.17,0.03-0.25,0.04c1.34-0.88,2.55-2.25,3.13-4.36c0,0-1.59,4.23-5.01,4.12c-3.41-0.11-2.41-3.49,0-2.49
			c0,0-1.45-1.23-3.01-0.04c-0.02,0.01-0.03,0.02-0.04,0.04c0.68-1.91,2.16-3.63,3.94-4.91c-2.07,0.94-4.06,2.44-5.27,4.6
			c-1.23-2.14-3.24-3.6-5.31-4.5c1.79,1.25,3.28,2.95,3.99,4.85c-0.03-0.03-0.06-0.05-0.09-0.08c-1.56-1.19-3.01,0.04-3.01,0.04
			c2.41-1,3.41,2.37,0,2.49c-3.42,0.11-5.01-4.12-5.01-4.12c0.59,2.11,1.79,3.48,3.13,4.36c-0.08-0.01-0.17-0.03-0.25-0.04
			l-2.14-0.32c-2.46-0.37-4.26-0.73-5.41-1.07c-1.15-0.34-2.19-0.86-3.12-1.55c-0.94-0.7-1.71-1.55-2.32-2.57
			c-0.59-0.99-0.89-1.84-0.87-2.54c0-0.05,0-0.09,0.01-0.13c0.07-0.48,0.28-1.05,0.82-1.26c0.05,0,0.11,0,0.17,0.01
			c-0.13,0.25-0.47,1.09,0.99,1.52c1.71,0.5,1.8,1.48,1.8,1.48s0.5-1.68-1.06-3.09c-0.93-0.85-2.05-0.61-2.59,0.23
			c-0.14,0.19-0.23,0.42-0.27,0.69c-0.1,0.49-0.05,1.08,0.21,1.72c0.03,0.06,0.05,0.13,0.08,0.19c0.16,0.41,0.38,0.85,0.66,1.31
			c0.81,1.35,1.9,2.51,3.27,3.47c1.33,0.93,2.62,1.58,3.87,1.95c-0.66-0.02-1.35-0.04-2.07-0.05c-0.27,0-0.53,0.01-0.79,0.02
			l-3.82,0.12c-4.39,0.13-7.64,0.1-9.76-0.11c-2.13-0.21-4.18-0.72-6.15-1.56c-1.99-0.85-3.8-2.01-5.45-3.5
			c-1.61-1.45-2.64-2.76-3.07-3.93c-0.03-0.08-0.05-0.15-0.08-0.22c-0.18-0.81-0.21-1.81,0.55-2.31c0.08-0.02,0.18-0.03,0.29-0.03
			c-0.07,0.44-0.08,1.93,2.65,2.23c3.2,0.35,3.97,1.92,3.97,1.92s-0.22-2.88-3.74-4.76c-2.13-1.14-3.85-0.45-4.2,1.1
			c-0.1,0.36-0.1,0.76,0,1.22c0.15,0.84,0.61,1.79,1.45,2.77c0.08,0.1,0.17,0.2,0.26,0.29c0.53,0.63,1.17,1.28,1.92,1.96
			c2.18,1.97,4.71,3.52,7.58,4.66c2.84,1.12,5.43,1.76,7.78,1.95c1.98,0.15,4.46,0.07,7.44-0.23c-1.69,0.29-3.5,0.65-5.43,1.11
			c-0.37,0.1-0.73,0.2-1.09,0.3l-5.23,1.57c-5.92,1.85-10.31,3.03-13.24,3.51c-2.92,0.49-5.88,0.41-8.89-0.25
			c-3.04-0.67-6.02-1.98-8.95-3.92c-2.88-1.91-4.95-3.83-6.17-5.74c-0.08-0.13-0.16-0.25-0.23-0.37c-0.7-1.37-1.32-3.16-0.61-4.34
			c0.1-0.07,0.22-0.13,0.36-0.17c0.17,0.82,1.01,3.48,4.74,2.95c4.4-0.62,6.28,1.85,6.28,1.85s-1.88-4.99-7.6-7
			c-3.46-1.23-5.31,0.68-4.85,3.59c0.07,0.68,0.31,1.41,0.7,2.19c0.68,1.44,1.82,2.96,3.45,4.36c0.17,0.14,0.33,0.28,0.5,0.42
			c1.03,0.9,2.22,1.79,3.57,2.69c3.89,2.57,7.99,4.26,12.33,5.07c4.3,0.78,8.04,0.86,11.27,0.25c3.24-0.6,7.31-1.99,12.26-4.12
			c1.3-0.55,2.51-1.03,3.62-1.47c-0.2,0.09-0.39,0.19-0.58,0.28c-3.65,1.81-7.21,3.7-10.86,5.39c-3.59,1.74-7.23,3.34-10.91,4.82
			c-0.49,0.2-0.99,0.4-1.49,0.59c-0.36-0.11-0.72-0.21-1.08-0.31c-3.78-1.04-7.63-2.18-11.6-2.55c-3.25-0.29-6.7,0.01-9.26,1.67
			c-5.02-1.74-9.9-4.88-14.19-8.81c-4.89-4.42-9.09-9.7-12.78-15.21c3.55,5.56,7.63,10.93,12.49,15.51
			c4.08,3.91,8.78,7.14,13.7,9.09c-0.22,0.19-0.44,0.4-0.64,0.62c-0.13,0.15-0.26,0.3-0.38,0.46c-0.78-0.3-1.51-0.62-2.18-0.94
			c-3.67-1.74-5.72-3.45-5.85-3.29c-0.14,0.13,1.77,2.19,5.51,4.28c0.59,0.33,1.23,0.66,1.92,0.98c-0.53,1.16-0.73,2.54-0.41,3.98
			c0.43,2.13,1.98,4.11,3.81,5.25c1.82,1.19,3.83,1.55,5.7,1.8c1.89,0.23,3.77,0.22,5.58-0.07c3.64-0.57,6.93-2.25,9.86-4.29h0
			c0.92-0.63,1.82-1.31,2.72-2.01c1.54-1.21,3.01-2.45,4.41-3.69c0.85,0.25,1.69,0.5,2.53,0.74c3.57,0.98,7.13,1.95,10.77,2.11
			c1.8,0.06,3.65-0.1,5.37-0.75c1.73-0.63,3.24-1.76,4.4-3.12c-1.17,1.35-2.69,2.47-4.42,3.08c-1.71,0.63-3.55,0.78-5.34,0.7
			c-3.62-0.2-7.17-1.19-10.72-2.21c-0.79-0.24-1.59-0.48-2.38-0.72c2.08-1.8,4.03-3.6,5.89-5.27c3.24-2.81,6.44-5.09,9.32-6.76
			c2.92-1.66,5.49-2.72,7.33-3.32c1.09-0.35,1.92-0.54,2.41-0.64c-0.18,0.12-0.36,0.24-0.53,0.38c-1.02,0.67-1.46,2.21-0.57,3.06
			c1.66,1.63,4.45,1.39,6.38,0.51c-2.03,0.73-4.69,0.51-5.72-0.9c-0.31-0.43-0.28-0.9-0.02-1.3c0.95-1.28,3.74-1.12,3.74-1.12
			c1.08-0.85,2.58-1.11,3.87-1.14c-1.79,0.3-2.69,1.16-2.69,1.16c2.43-0.14,4.08,0.66,5.17,1.62c-1.27-0.43-2.29-0.05-2.23,0.11
			c0.01,0.23,1.25,0.2,2.42,0.84l0.14,0.09c0.77,0.55,1.6,1.57,0.88,3.26c-1.19,2.82-3.27,2.08-3.27,2.08s3.1,1.64,3.92-2.15v0.02
			c-0.18,1-0.46,1.99-0.86,2.92c-0.74,1.79-1.95,3.32-3.33,4.67c-2.74,2.67-6.13,4.97-7.76,8.78l0,0c-0.11,0.3-0.22,0.59-0.29,0.91
			c-0.75,2.73-0.02,5.3,0.72,6.88c0.76,1.62,1.55,2.42,1.63,2.36c0.09-0.07-0.5-0.97-1.1-2.57c-0.59-1.58-1.15-3.97-0.47-6.45
			c0.07-0.29,0.17-0.56,0.26-0.83h0c1.35-3.54,4.61-6.01,7.3-8.79c1.35-1.41,2.54-3.03,3.23-4.87c0.31-0.8,0.53-1.62,0.68-2.45
			l0,0.18c-0.12,0.78-0.29,1.54-0.53,2.28c-0.71,2.26-2.04,4.26-3.6,6.03c-1.54,1.8-3.36,3.4-4.79,5.48
			c-0.69,1.05-1.28,2.25-1.47,3.57c-0.21,1.32-0.04,2.64,0.22,3.86h0c0.1,0.38,0.2,0.76,0.33,1.15c1.07,3.36,3.47,5.71,5.37,6.85
			c1.93,1.18,3.34,1.37,3.4,1.17c0.08-0.22-1.13-0.78-2.74-2.09c-1.6-1.3-3.55-3.46-4.5-6.43c-0.12-0.34-0.21-0.68-0.3-1.02l0,0
			c-0.69-2.22-0.54-4.41,0.71-6.4c1.19-1.97,2.92-3.69,4.39-5.62c1.5-1.91,2.77-4.07,3.36-6.43c0.06-0.24,0.12-0.48,0.17-0.72
			l0.75,59.25l0.65-59.18c0.05,0.22,0.1,0.44,0.16,0.66c0.6,2.36,1.87,4.53,3.36,6.43c1.48,1.92,3.2,3.65,4.39,5.62
			c1.25,1.98,1.4,4.18,0.71,6.4l0,0c-0.1,0.34-0.18,0.68-0.3,1.02c-0.95,2.97-2.9,5.14-4.5,6.43c-1.61,1.31-2.82,1.88-2.74,2.09
			c0.06,0.21,1.47,0.01,3.4-1.17c1.9-1.14,4.3-3.49,5.37-6.85c0.13-0.38,0.23-0.77,0.33-1.15h0c0.26-1.22,0.43-2.53,0.22-3.86
			c-0.19-1.32-0.78-2.52-1.47-3.57c-1.43-2.08-3.25-3.68-4.79-5.48c-1.56-1.78-2.89-3.77-3.6-6.03c-0.24-0.72-0.41-1.46-0.52-2.21
			l0-0.19c0.15,0.82,0.37,1.62,0.67,2.4c0.69,1.84,1.88,3.46,3.23,4.87c2.69,2.77,5.95,5.25,7.3,8.79h0
			c0.09,0.27,0.2,0.54,0.26,0.83c0.68,2.48,0.12,4.87-0.47,6.45c-0.6,1.6-1.2,2.51-1.1,2.57c0.08,0.07,0.86-0.74,1.63-2.36
			c0.75-1.58,1.47-4.15,0.72-6.88c-0.08-0.31-0.19-0.61-0.29-0.91l0,0c-1.64-3.81-5.02-6.11-7.76-8.78
			c-1.38-1.34-2.59-2.88-3.33-4.67c-0.39-0.92-0.67-1.88-0.85-2.87v-0.03c0.83,3.73,3.91,2.11,3.91,2.11s-2.08,0.74-3.27-2.08
			c-0.71-1.69,0.11-2.72,0.88-3.26l0.14-0.09c1.17-0.64,2.41-0.61,2.42-0.84c0.06-0.17-0.96-0.54-2.23-0.11
			c1.09-0.96,2.74-1.76,5.17-1.62c0,0-0.91-0.87-2.69-1.16c1.29,0.03,2.78,0.29,3.87,1.14c0,0,2.79-0.16,3.74,1.12
			c0.26,0.41,0.28,0.87-0.02,1.3c-1.04,1.41-3.69,1.63-5.73,0.9c1.94,0.88,4.73,1.12,6.39-0.51c0.9-0.85,0.45-2.39-0.57-3.06
			c-0.17-0.14-0.34-0.26-0.53-0.38c0.49,0.1,1.32,0.29,2.41,0.64c1.84,0.6,4.41,1.66,7.33,3.32c2.89,1.67,6.08,3.96,9.32,6.76
			c1.85,1.68,3.8,3.47,5.89,5.27c-0.8,0.24-1.59,0.48-2.38,0.72c-3.56,1.02-7.1,2.01-10.72,2.21c-1.79,0.08-3.63-0.07-5.34-0.7
			c-1.72-0.61-3.24-1.73-4.42-3.08c1.16,1.36,2.67,2.49,4.4,3.12c1.71,0.65,3.57,0.82,5.37,0.75c3.64-0.17,7.21-1.13,10.77-2.11
			c0.84-0.24,1.69-0.49,2.53-0.74c1.4,1.24,2.86,2.48,4.41,3.69c0.9,0.7,1.8,1.39,2.72,2.01h0c2.93,2.04,6.22,3.73,9.86,4.29
			c1.81,0.29,3.7,0.3,5.58,0.07c1.87-0.25,3.87-0.61,5.7-1.8c1.83-1.14,3.38-3.13,3.81-5.25c0.31-1.44,0.12-2.82-0.41-3.98
			c0.68-0.31,1.33-0.64,1.92-0.98c3.74-2.08,5.65-4.15,5.51-4.28c-0.13-0.16-2.19,1.54-5.85,3.29c-0.67,0.33-1.4,0.64-2.18,0.94
			c-0.12-0.16-0.24-0.31-0.38-0.46c-0.2-0.22-0.42-0.43-0.64-0.62c4.92-1.95,9.61-5.19,13.7-9.09c4.85-4.58,8.94-9.95,12.49-15.51
			C234.51,195.56,230.31,200.84,225.42,205.26z M76.97,215.71c0.26-0.29,0.54-0.55,0.84-0.79c0.52,0.19,1.03,0.37,1.56,0.53v0
			c0.44,0.13,0.88,0.25,1.33,0.37c3.87,0.97,7.37,0.95,9.76,0.61c2.41-0.33,3.78-0.92,3.72-1.03c-0.03-0.23-5.86,1.43-13.41-0.48
			c-0.44-0.11-0.87-0.23-1.29-0.36v0c-0.27-0.08-0.54-0.16-0.81-0.24c2.37-1.4,5.52-1.7,8.54-1.46c3.88,0.33,7.73,1.42,11.51,2.42
			c0.22,0.06,0.44,0.12,0.65,0.18c-3,1.11-6.13,1.9-9.36,2.18v0c-0.61,0.07-1.23,0.11-1.86,0.13c-4.17,0.2-8.16-0.62-11.41-1.79
			C76.82,215.88,76.89,215.79,76.97,215.71z M102.18,220.72c-0.89,0.69-1.77,1.36-2.68,1.97l0,0c-2.86,2.02-6.03,3.67-9.54,4.24
			c-1.75,0.29-3.56,0.32-5.4,0.11c-1.84-0.23-3.72-0.57-5.4-1.64c-1.68-1.03-3.06-2.78-3.46-4.68c-0.3-1.31-0.12-2.6,0.39-3.7
			c3.43,1.47,7.81,2.52,12.34,2.28c0.66-0.03,1.3-0.07,1.93-0.16v0c3.84-0.48,7.47-1.65,10.87-3.17c1.65,0.48,3.29,0.97,4.91,1.45
			C104.89,218.54,103.57,219.65,102.18,220.72z M112.68,211.71c-1.99,1.76-4.07,3.65-6.3,5.54c-1.56-0.48-3.14-0.97-4.72-1.45
			c0.08-0.04,0.16-0.07,0.24-0.11c3.63-1.62,7.22-3.35,10.76-5.21c1.77-0.9,3.52-1.85,5.27-2.81
			C116.21,208.85,114.45,210.2,112.68,211.71z M144.05,198.56l-0.08,0.02l0,0L144.05,198.56L144.05,198.56z M144.12,199.84
			c0-0.07,0-0.13,0-0.2c0.01,0.07,0.02,0.13,0.03,0.2C144.14,199.84,144.13,199.84,144.12,199.84z M144.61,198.4L144.61,198.4
			L144.61,198.4L144.61,198.4L144.61,198.4z M145.03,199.85c-0.01,0-0.02,0-0.03,0c0.01-0.06,0.02-0.12,0.03-0.17
			C145.03,199.74,145.03,199.8,145.03,199.85z M176.47,211.71c-1.77-1.51-3.53-2.86-5.24-4.04c1.75,0.96,3.5,1.91,5.27,2.81
			c3.53,1.86,7.13,3.59,10.76,5.21c0.08,0.04,0.16,0.07,0.24,0.11c-1.59,0.48-3.16,0.97-4.72,1.45
			C180.55,215.36,178.47,213.47,176.47,211.71z M213.05,217.03c0.51,1.1,0.68,2.38,0.39,3.7c-0.4,1.9-1.78,3.65-3.46,4.68
			c-1.67,1.07-3.55,1.41-5.4,1.64c-1.84,0.2-3.65,0.18-5.4-0.11c-3.51-0.57-6.68-2.22-9.54-4.24l0,0c-0.91-0.61-1.79-1.28-2.67-1.97
			c-1.38-1.07-2.7-2.18-3.98-3.28c1.63-0.49,3.26-0.98,4.91-1.45c3.41,1.52,7.04,2.69,10.87,3.17v0c0.63,0.08,1.28,0.13,1.93,0.16
			C205.25,219.55,209.62,218.5,213.05,217.03z M212.19,215.71c0.08,0.09,0.15,0.17,0.22,0.26c-3.25,1.17-7.24,1.99-11.41,1.79
			c-0.63-0.03-1.25-0.06-1.86-0.13v0c-3.23-0.28-6.36-1.07-9.36-2.18c0.22-0.06,0.44-0.12,0.65-0.18c3.77-1,7.63-2.09,11.51-2.42
			c3.02-0.24,6.17,0.06,8.54,1.46c-0.27,0.08-0.54,0.16-0.81,0.24v0c-0.42,0.13-0.85,0.24-1.29,0.36
			c-7.55,1.91-13.38,0.25-13.41,0.48c-0.06,0.11,1.31,0.7,3.72,1.03c2.4,0.34,5.89,0.36,9.76-0.61c0.45-0.12,0.89-0.24,1.33-0.37v0
			c0.52-0.16,1.04-0.34,1.56-0.53C211.65,215.16,211.93,215.42,212.19,215.71z M169.08,213.71c-1.51-3.59-3.96-6.87-7-9.7
			l-1.06,0.97C164.29,207.39,167.1,210.31,169.08,213.71z M131.12,202.11c-1.39,0.53-2.74,1.19-4.05,1.9l1.06,0.97
			C129.05,203.97,130.03,203,131.12,202.11z M120.08,213.71c1.98-3.4,4.79-6.33,8.06-8.73l-1.06-0.97
			C124.03,206.84,121.59,210.12,120.08,213.71z M161.02,204.98l1.06-0.97c-1.31-0.71-2.65-1.37-4.05-1.9
			C159.13,203,160.11,203.97,161.02,204.98z"/>
		<path class="st5" d="M105.92,230.36c-0.02,0.02-0.03,0.04-0.03,0.04C105.9,230.38,105.91,230.37,105.92,230.36z"/>
		<path class="st5" d="M106.64,234.01c0-0.14,0.02-0.28,0.04-0.43C106.65,233.73,106.64,233.87,106.64,234.01
			C106.64,234.01,106.64,234.01,106.64,234.01z"/>
		<path class="st5" d="M100.54,226.92c0,0,0.02-0.08,0.05-0.21l0.01-0.01C100.56,226.84,100.54,226.92,100.54,226.92z"/>
		<path class="st4" d="M81.23,157.5c-0.3-0.17-0.62-0.31-0.95-0.42C80.61,157.2,80.93,157.34,81.23,157.5z"/>
		<path class="st5" d="M92.44,194.31c0.14-0.14,0.26-0.28,0.39-0.43C92.71,194.02,92.58,194.17,92.44,194.31z"/>
		<path class="st5" d="M144.58,223.13c0-0.02,0-0.04,0-0.06c0.02,0.08,0.03,0.16,0.04,0.23
			C144.61,223.24,144.6,223.19,144.58,223.13z"/>
		<path class="st5" d="M99.19,233.37c-0.42-0.1-0.85-0.24-1.28-0.41C98.34,233.13,98.77,233.27,99.19,233.37z"/>
	</g>
	<path class="st4" d="M55.45,175.25c0,0,0.03-0.06,0.08-0.16C55.47,175.18,55.45,175.25,55.45,175.25z"/>
	<g id="華麗向量包_02">
	</g>
	<g id="華麗向量包_11">
	</g>
</g>
</svg>
